<svg width="22" height="22" viewBox="0 0 22 22" fill="none" xmlns="http://www.w3.org/2000/svg">
<path d="M0.625 15.501C0.625 15.1032 0.783035 14.7216 1.06434 14.4403C1.34564 14.159 1.72718 14.001 2.125 14.001H5.125C5.52282 14.001 5.90436 14.159 6.18566 14.4403C6.46696 14.7216 6.625 15.1032 6.625 15.501V20.001C6.625 20.3988 6.46696 20.7803 6.18566 21.0616C5.90436 21.3429 5.52282 21.501 5.125 21.501H2.125C1.72718 21.501 1.34564 21.3429 1.06434 21.0616C0.783035 20.7803 0.625 20.3988 0.625 20.001V15.501ZM8.125 9.50098C8.125 9.10315 8.28304 8.72162 8.56434 8.44032C8.84564 8.15901 9.22718 8.00098 9.625 8.00098H12.625C13.0228 8.00098 13.4044 8.15901 13.6857 8.44032C13.967 8.72162 14.125 9.10315 14.125 9.50098V20.001C14.125 20.3988 13.967 20.7803 13.6857 21.0616C13.4044 21.3429 13.0228 21.501 12.625 21.501H9.625C9.22718 21.501 8.84564 21.3429 8.56434 21.0616C8.28304 20.7803 8.125 20.3988 8.125 20.001V9.50098ZM15.625 2.00098C15.625 1.60315 15.783 1.22162 16.0643 0.940316C16.3456 0.659012 16.7272 0.500977 17.125 0.500977H20.125C20.5228 0.500977 20.9044 0.659012 21.1857 0.940316C21.467 1.22162 21.625 1.60315 21.625 2.00098V20.001C21.625 20.3988 21.467 20.7803 21.1857 21.0616C20.9044 21.3429 20.5228 21.501 20.125 21.501H17.125C16.7272 21.501 16.3456 21.3429 16.0643 21.0616C15.783 20.7803 15.625 20.3988 15.625 20.001V2.00098Z" fill="#1A1B2F" fill-opacity="0.3"/>
</svg>
