<svg width="21" height="22" viewBox="0 0 21 22" fill="none" xmlns="http://www.w3.org/2000/svg">
<path d="M0 15.5C0 15.1022 0.158035 14.7206 0.43934 14.4393C0.720644 14.158 1.10218 14 1.5 14H4.5C4.89782 14 5.27936 14.158 5.56066 14.4393C5.84196 14.7206 6 15.1022 6 15.5V20C6 20.3978 5.84196 20.7794 5.56066 21.0607C5.27936 21.342 4.89782 21.5 4.5 21.5H1.5C1.10218 21.5 0.720644 21.342 0.43934 21.0607C0.158035 20.7794 0 20.3978 0 20V15.5ZM7.5 9.5C7.5 9.10218 7.65804 8.72064 7.93934 8.43934C8.22064 8.15804 8.60218 8 9 8H12C12.3978 8 12.7794 8.15804 13.0607 8.43934C13.342 8.72064 13.5 9.10218 13.5 9.5V20C13.5 20.3978 13.342 20.7794 13.0607 21.0607C12.7794 21.342 12.3978 21.5 12 21.5H9C8.60218 21.5 8.22064 21.342 7.93934 21.0607C7.65804 20.7794 7.5 20.3978 7.5 20V9.5ZM15 2C15 1.60218 15.158 1.22064 15.4393 0.93934C15.7206 0.658035 16.1022 0.5 16.5 0.5H19.5C19.8978 0.5 20.2794 0.658035 20.5607 0.93934C20.842 1.22064 21 1.60218 21 2V20C21 20.3978 20.842 20.7794 20.5607 21.0607C20.2794 21.342 19.8978 21.5 19.5 21.5H16.5C16.1022 21.5 15.7206 21.342 15.4393 21.0607C15.158 20.7794 15 20.3978 15 20V2Z" fill="#162447"/>
</svg>
